<svg width="107" height="60" viewBox="0 0 107 60" fill="none" xmlns="http://www.w3.org/2000/svg">
<path fill-rule="evenodd" clip-rule="evenodd" d="M51.9486 12.1891C52.5465 12.7348 52.4272 14.1273 52.2479 14.6129C52.0687 14.9755 51.2915 15.1571 50.5736 15.0363C49.7972 14.8546 49.0801 15.5197 48.8408 16.6104C48.6022 17.6395 49.0201 18.5485 49.7372 18.791C50.5736 18.9118 51.1122 20.1834 51.1122 20.6082C51.1722 21.0916 50.6336 21.6373 49.9165 21.819C49.1994 22.1215 48.9008 23.1506 49.1994 24.1204C49.4986 25.1496 50.3351 25.7546 51.1122 25.5129C51.7701 25.2704 52.6065 25.4521 52.7851 25.8154C52.9658 26.1794 53.2636 27.5719 52.7258 28.1183C52.2479 28.7226 52.4865 29.7524 53.2044 30.4798C53.9815 31.1448 55.0565 31.2665 55.5336 30.7215C56.0744 30.1157 57.4494 30.2974 57.8651 30.4798C58.2851 30.6006 58.4644 31.3873 58.2851 32.1139C58.1658 32.9013 58.8222 33.688 59.8379 33.9305C60.8551 34.1129 61.8108 33.688 61.9915 32.9621C62.1686 32.1747 63.4251 31.5682 63.8437 31.5682C64.2615 31.5082 64.8579 32.0539 65.0994 32.7805C65.338 33.5671 66.2929 33.8704 67.3108 33.5672C68.2665 33.2039 68.9237 32.3564 68.6844 31.629C68.4451 30.9024 69.2808 29.6916 69.6415 29.4499C69.9401 29.2067 70.7165 29.3884 71.3158 29.9341C71.7937 30.4798 72.8687 30.2366 73.5273 29.4499C74.3037 28.6625 74.363 27.5718 73.7658 27.0869C73.2887 26.5427 73.3458 25.1496 73.5273 24.7855C73.7658 24.3621 74.4822 24.1204 75.2001 24.3021C75.9772 24.483 76.8144 23.7571 76.9337 22.7273C77.2315 21.6981 76.8144 20.7284 76.0351 20.5474C75.3194 20.3643 74.7215 19.0942 74.6615 18.6694C74.6015 18.246 75.1394 17.7003 75.858 17.3978C76.5751 17.2161 76.9337 16.2471 76.5751 15.1571C76.3358 14.1273 75.3816 13.5816 74.7808 13.764C74.0051 14.0064 72.8094 13.219 72.5694 12.8565C72.2716 12.4931 72.5094 11.705 73.0472 11.16C73.5273 10.6151 73.2887 9.52441 72.5694 8.7978C71.7937 8.13198 70.7758 8.01114 70.2387 8.5561C69.7608 9.10179 68.2665 9.04023 67.9087 8.85785C67.5494 8.67693 67.3108 7.89028 67.4901 7.16293C67.6694 6.43558 66.9501 5.58884 65.9351 5.40646C64.8579 5.16474 63.9629 5.58884 63.7236 6.37552C63.6636 7.10287 62.3501 7.70787 61.9301 7.7694C61.5122 7.7694 60.9751 7.22372 60.6758 6.49637C60.4973 5.77049 59.4794 5.4665 58.5236 5.77048C57.5065 6.07299 56.9101 6.98127 57.1486 7.70788C57.3272 8.4345 56.5515 9.52442 56.1337 9.82766C55.8344 10.0701 55.0565 9.88774 54.5186 9.34351C53.9815 8.85788 52.9051 9.04025 52.1879 9.82766C51.5308 10.6151 51.4108 11.705 51.9486 12.1891ZM60.3165 11.6449C64.7386 10.2518 69.343 12.674 70.7758 17.0953C72.2115 21.5165 69.7608 26.1794 65.398 27.6327C61.0944 29.0251 56.4322 26.6028 55.0565 22.2424C53.6222 17.8211 56.0744 13.0974 60.3165 11.6449Z" fill="#5A27F2"/>
<path fill-rule="evenodd" clip-rule="evenodd" d="M31.328 24.9071C31.8066 25.3312 31.6873 26.4218 31.568 26.6027C31.3873 26.9661 30.8494 27.0869 30.3708 26.9661C29.7737 26.8452 29.2366 27.3902 29.0565 28.1182C28.9365 28.9042 29.2366 29.6308 29.7737 29.6916C30.3115 29.8732 30.7301 30.7822 30.7901 31.084C30.7901 31.4473 30.4308 31.8114 29.893 31.993C29.3558 32.1747 29.0566 32.9013 29.2966 33.6279C29.5351 34.4153 30.1915 34.8387 30.7301 34.657C31.208 34.4761 31.8066 34.597 31.9258 34.9002C32.1051 35.1426 32.3437 36.111 31.9258 36.5959C31.568 37.0192 31.7466 37.7466 32.3437 38.2908C32.8823 38.8358 33.5987 38.8966 33.958 38.4725C34.3758 38.0491 35.393 38.17 35.6908 38.23C35.9309 38.4117 36.1101 38.9574 35.9308 39.5639C35.8708 40.0473 36.3487 40.6523 37.1251 40.7747C37.903 40.9556 38.5601 40.7131 38.6801 40.1081C38.8594 39.5639 39.7558 39.139 40.0544 39.139C40.4137 39.0782 40.7723 39.4423 41.0108 40.0473C41.1301 40.5315 41.848 40.7131 42.5659 40.5315C43.2823 40.2897 43.7601 39.6847 43.5808 39.139C43.4616 38.6549 43.9987 37.7466 44.2387 37.5649C44.5373 37.3825 45.0159 37.5042 45.4937 37.9283C45.9116 38.2301 46.6294 38.17 47.108 37.5649C47.6451 37.0192 47.7051 36.1711 47.3473 35.8077C46.928 35.4452 47.0487 34.4153 47.108 34.1128C47.2873 33.8095 47.8244 33.6279 48.3623 33.8095C48.9601 33.9304 49.4987 33.3855 49.618 32.6596C49.7973 31.8722 49.4987 31.1448 48.9601 31.024C48.4216 30.9632 48.0037 29.9948 47.9437 29.6308C47.8844 29.3883 48.3023 28.965 48.8409 28.7833C49.3794 28.6017 49.5587 27.875 49.3794 27.0869C49.1394 26.361 48.5423 25.9376 48.0037 26.1186C47.4666 26.2401 46.6294 25.6937 46.3909 25.452C46.2101 25.1495 46.3909 24.5437 46.7487 24.1804C47.108 23.7571 46.9873 22.9697 46.3909 22.4848C45.8516 21.9398 45.0159 21.8189 44.7166 22.3031C44.298 22.6671 43.2823 22.6056 42.9837 22.4848C42.7444 22.3639 42.6251 21.8189 42.7444 21.2732C42.8044 20.7283 42.3259 20.1233 41.548 19.9409C40.8316 19.82 40.1137 20.1233 39.9944 20.6682C39.8751 21.2132 38.9787 21.6373 38.6201 21.6981C38.3216 21.7582 37.9623 21.3348 37.723 20.7891C37.6037 20.2434 36.8266 19.9409 36.1101 20.2434C35.4523 20.4265 34.9737 21.0916 35.093 21.6373C35.273 22.1823 34.6744 23.0304 34.4358 23.2114C34.1373 23.393 33.6594 23.2722 33.1808 22.8481C32.8216 22.4848 32.0451 22.6671 31.568 23.2114C31.0287 23.8171 30.9094 24.5438 31.328 24.9071ZM37.4844 24.5437C40.7123 23.5139 44.0594 25.2703 45.0759 28.4808C46.0908 31.6898 44.358 35.2027 41.1901 36.1711C37.9623 37.2624 34.6151 35.5052 33.5987 32.2347C32.523 29.025 34.3165 25.5729 37.4844 24.5437Z" fill="white"/>
<path fill-rule="evenodd" clip-rule="evenodd" d="M34.6745 4.92222C35.033 5.22473 34.9738 6.07296 34.7945 6.31467C34.7345 6.49633 34.2566 6.67798 33.8981 6.55713C33.4202 6.49633 32.9416 6.92116 32.8216 7.52619C32.7016 8.13194 32.9416 8.6769 33.4202 8.79775C33.8388 8.91861 34.1373 9.64596 34.1973 9.94847C34.1973 10.1916 33.898 10.4942 33.4202 10.6751C33.0023 10.7967 32.8216 11.4024 33.0023 12.0074C33.1809 12.6139 33.7195 12.9765 34.1373 12.7956C34.5552 12.674 35.033 12.7348 35.1538 12.9765C35.273 13.219 35.4523 14.0672 35.093 14.3697C34.7945 14.6729 34.9738 15.278 35.4523 15.7621C35.8709 16.1862 36.4681 16.247 36.8266 15.8837C37.1252 15.5804 37.9623 15.6405 38.2024 15.7621C38.4409 15.8222 38.5009 16.247 38.4409 16.7312C38.3216 17.2161 38.7395 17.6394 39.3366 17.7603C39.9945 17.8819 40.5331 17.7003 40.5931 17.2161C40.7123 16.7312 41.4888 16.4287 41.7273 16.3686C42.0266 16.3686 42.3259 16.6704 42.4452 17.1553C42.5659 17.5794 43.1631 17.7603 43.7602 17.5794C44.2981 17.3977 44.7166 16.8535 44.5373 16.4287C44.4773 16.0053 44.9559 15.2779 45.0759 15.1571C45.3152 15.0362 45.7923 15.1571 46.0909 15.4596C46.4502 15.7621 47.1081 15.6405 47.5259 15.1571C47.8845 14.6729 48.0038 14.0672 47.5859 13.7039C47.2874 13.4607 47.3474 12.6139 47.4666 12.3107C47.5859 12.0675 48.0038 12.0075 48.4816 12.0675C48.9009 12.1891 49.3795 11.7657 49.4988 11.16C49.5588 10.5542 49.3795 10.0093 48.9602 9.88767C48.4816 9.76681 48.1231 9.04022 48.0638 8.7377C48.0638 8.49525 48.4216 8.13192 48.8409 8.01106C49.2588 7.8902 49.4395 7.28447 49.2588 6.67798C49.0802 6.07295 48.6024 5.70962 48.1231 5.83048C47.7052 6.01213 47.0488 5.46647 46.8681 5.34561C46.7488 5.10389 46.8681 4.68052 47.1081 4.31575C47.4666 3.95317 47.3474 3.34813 46.8681 2.92329C46.3909 2.49992 45.7924 2.37907 45.5538 2.80244C45.1952 3.10495 44.3581 3.04415 44.1195 2.92329C43.9388 2.80244 43.7602 2.37906 43.8795 1.89343C43.9988 1.47079 43.5209 0.985909 42.9838 0.864319C42.3259 0.74346 41.7873 0.985924 41.6681 1.41003C41.5481 1.89346 40.8316 2.25676 40.5331 2.31829C40.2931 2.31829 39.9945 1.95425 39.8152 1.53088C39.6959 1.10751 39.1581 0.9251 38.5009 1.10749C37.9623 1.28914 37.6038 1.8334 37.723 2.25677C37.8431 2.68161 37.3652 3.40895 37.1252 3.5298C36.9459 3.71072 36.468 3.52978 36.1695 3.28806C35.8709 2.92329 35.273 3.04417 34.7945 3.5298C34.4359 3.95317 34.3166 4.61971 34.6745 4.92222ZM39.6359 4.61972C42.2066 3.77151 45.0159 5.16466 45.7924 7.82941C46.6295 10.4334 45.2552 13.219 42.6252 14.0672C40.0545 14.9146 37.3652 13.4607 36.4681 10.8575C35.6309 8.2528 37.0652 5.46646 39.6359 4.61972Z" fill="white"/>
<path d="M3.22883 48.37C3.68032 48.37 4.08165 48.4713 4.43281 48.6741C4.78396 48.8722 5.06899 49.1487 5.2879 49.5035V45.9093H7.26487V56.0838H5.36999V55.0401C5.0918 55.4871 4.77484 55.8119 4.41912 56.0147C4.0634 56.2174 3.62104 56.3188 3.09202 56.3188C2.22096 56.3188 1.48672 55.964 0.889297 55.2544C0.296432 54.5401 0 53.6254 0 52.5103C0 51.2246 0.291872 50.2132 0.875616 49.4759C1.46392 48.7386 2.24833 48.37 3.22883 48.37ZM3.65296 54.6599C4.20478 54.6599 4.62435 54.4526 4.91166 54.0378C5.19897 53.6231 5.34262 53.0863 5.34262 52.4273C5.34262 51.5057 5.11232 50.8468 4.65171 50.4505C4.36896 50.2109 4.0406 50.0911 3.66664 50.0911C3.09658 50.0911 2.67701 50.31 2.40794 50.7477C2.14343 51.1809 2.01118 51.72 2.01118 52.3651C2.01118 53.0609 2.14571 53.6185 2.41478 54.0378C2.68841 54.4526 3.10114 54.6599 3.65296 54.6599Z" fill="white"/>
<path d="M12.1251 49.9736C11.6736 49.9736 11.3224 50.1164 11.0716 50.4021C10.8253 50.6878 10.6703 51.0749 10.6064 51.5633H13.6369C13.605 51.0426 13.4476 50.6486 13.1649 50.3814C12.8867 50.1095 12.5401 49.9736 12.1251 49.9736ZM12.1251 48.3492C12.7453 48.3492 13.304 48.4667 13.8011 48.7018C14.2982 48.9368 14.7086 49.3077 15.0324 49.8146C15.3243 50.2616 15.5135 50.78 15.6002 51.3698C15.6504 51.7154 15.6709 52.2131 15.6618 52.8628H10.5586C10.5859 53.6185 10.8208 54.1484 11.2632 54.4526C11.5322 54.6415 11.856 54.736 12.2345 54.736C12.6359 54.736 12.9619 54.6208 13.2128 54.3904C13.3496 54.2659 13.4704 54.0931 13.5753 53.872H15.566C15.5158 54.3189 15.2855 54.7728 14.8751 55.2336C14.2366 55.9663 13.3427 56.3326 12.1935 56.3326C11.2449 56.3326 10.4081 56.0239 9.68294 55.4064C8.95782 54.789 8.59526 53.7844 8.59526 52.3928C8.59526 51.0887 8.92134 50.0888 9.57349 49.393C10.2302 48.6971 11.0807 48.3492 12.1251 48.3492Z" fill="white"/>
<path d="M18.6408 53.6784C18.6818 54.0286 18.7707 54.2775 18.9076 54.4249C19.1493 54.6876 19.5962 54.8189 20.2483 54.8189C20.6314 54.8189 20.9347 54.7613 21.1582 54.6461C21.3862 54.5309 21.5002 54.3581 21.5002 54.1277C21.5002 53.9065 21.409 53.7383 21.2266 53.6231C21.0441 53.5079 20.3669 53.3098 19.1949 53.0287C18.3512 52.8167 17.756 52.5518 17.4094 52.2338C17.0628 51.9205 16.8895 51.4689 16.8895 50.879C16.8895 50.1832 17.1586 49.5865 17.6967 49.0888C18.2394 48.5865 19.001 48.3354 19.9816 48.3354C20.9119 48.3354 21.6689 48.5243 22.2527 48.9022C22.841 49.2754 23.1785 49.9229 23.2651 50.8445H21.3155C21.2881 50.591 21.2174 50.3906 21.1034 50.2431C20.8891 49.9759 20.5243 49.8422 20.0089 49.8422C19.5848 49.8422 19.2815 49.9091 19.0991 50.0427C18.9212 50.1763 18.8323 50.333 18.8323 50.5127C18.8323 50.7385 18.9281 50.9021 19.1196 51.0035C19.3112 51.1094 19.9884 51.2915 21.1513 51.5495C21.9266 51.7338 22.5081 52.0126 22.8957 52.3859C23.2788 52.7637 23.4703 53.2361 23.4703 53.8028C23.4703 54.5493 23.1944 55.1599 22.6426 55.6345C22.0953 56.1045 21.2471 56.3396 20.0978 56.3396C18.9258 56.3396 18.0593 56.0907 17.4984 55.5931C16.942 55.0908 16.6638 54.4526 16.6638 53.6784H18.6408Z" fill="white"/>
<path d="M27.065 47.6511H25.088V45.8333H27.065V47.6511ZM25.088 48.5497H27.065V56.0838H25.088V48.5497Z" fill="white"/>
<path d="M32.3015 54.4664C32.7575 54.4664 33.1429 54.2936 33.4576 53.948C33.7722 53.5978 33.9296 53.0425 33.9296 52.2822C33.9296 51.5679 33.7791 51.0242 33.4781 50.6509C33.1816 50.2777 32.7826 50.0911 32.2809 50.0911C31.5969 50.0911 31.1249 50.4159 30.8649 51.0657C30.7281 51.4113 30.6597 51.8375 30.6597 52.3444C30.6597 52.7822 30.7327 53.1715 30.8786 53.5125C31.1431 54.1484 31.6174 54.4664 32.3015 54.4664ZM31.8158 48.37C32.1897 48.37 32.5158 48.4276 32.794 48.5428C33.2683 48.7409 33.6514 49.105 33.9432 49.6349V48.5497H35.8381V55.6967C35.8381 56.669 35.6762 57.4017 35.3524 57.8948C34.7961 58.7426 33.7289 59.1666 32.151 59.1666C31.1978 59.1666 30.4203 58.9777 29.8183 58.5998C29.2163 58.2219 28.8834 57.6575 28.8195 56.9063H30.9402C30.9949 57.1367 31.0838 57.3026 31.2069 57.404C31.4167 57.5837 31.7702 57.6736 32.2673 57.6736C32.9696 57.6736 33.4393 57.4363 33.6765 56.9616C33.8315 56.6575 33.909 56.146 33.909 55.4272V54.9433C33.7221 55.2659 33.5214 55.5078 33.3071 55.6691C32.9194 55.9686 32.4155 56.1184 31.7953 56.1184C30.8375 56.1184 30.0714 55.7797 29.4968 55.1023C28.9267 54.4203 28.6417 53.4987 28.6417 52.3375C28.6417 51.2177 28.9176 50.2777 29.4694 49.5174C30.0212 48.7524 30.8033 48.37 31.8158 48.37Z" fill="white"/>
<path d="M41.9365 48.37C42.7072 48.37 43.3366 48.575 43.8246 48.9851C44.3171 49.3907 44.5634 50.0657 44.5634 51.0104V56.0838H42.5659V51.5011C42.5659 51.1048 42.5134 50.8007 42.4085 50.5887C42.217 50.2017 41.8522 50.0081 41.314 50.0081C40.6527 50.0081 40.199 50.2915 39.9527 50.8583C39.825 51.1578 39.7612 51.5403 39.7612 52.0057V56.0838H37.8184V48.5635H39.6996V49.6625C39.9504 49.2754 40.1876 48.9967 40.411 48.8262C40.8124 48.522 41.3209 48.37 41.9365 48.37Z" fill="white"/>
<path d="M52.0674 53.6784C52.1084 54.0286 52.1974 54.2775 52.3342 54.4249C52.5759 54.6876 53.0228 54.8189 53.675 54.8189C54.0581 54.8189 54.3613 54.7613 54.5848 54.6461C54.8128 54.5309 54.9268 54.3581 54.9268 54.1277C54.9268 53.9065 54.8356 53.7383 54.6532 53.6231C54.4708 53.5079 53.7935 53.3098 52.6215 53.0287C51.7778 52.8167 51.1827 52.5518 50.8361 52.2338C50.4895 51.9205 50.3162 51.4689 50.3162 50.879C50.3162 50.1832 50.5852 49.5865 51.1234 49.0888C51.6661 48.5865 52.4277 48.3354 53.4082 48.3354C54.3385 48.3354 55.0956 48.5243 55.6793 48.9022C56.2676 49.2754 56.6051 49.9229 56.6917 50.8445H54.7421C54.7148 50.591 54.6441 50.3906 54.5301 50.2431C54.3157 49.9759 53.9509 49.8422 53.4356 49.8422C53.0114 49.8422 52.7081 49.9091 52.5257 50.0427C52.3479 50.1763 52.2589 50.333 52.2589 50.5127C52.2589 50.7385 52.3547 50.9021 52.5463 51.0035C52.7378 51.1094 53.415 51.2915 54.578 51.5495C55.3532 51.7338 55.9347 52.0126 56.3223 52.3859C56.7054 52.7637 56.897 53.2361 56.897 53.8028C56.897 54.5493 56.6211 55.1599 56.0692 55.6345C55.522 56.1045 54.6737 56.3396 53.5245 56.3396C52.3524 56.3396 51.4859 56.0907 50.925 55.5931C50.3686 55.0908 50.0904 54.4526 50.0904 53.6784H52.0674Z" fill="white"/>
<path d="M58.7883 57.5284L59.0346 57.5423C59.2261 57.5515 59.4085 57.5446 59.5818 57.5215C59.7551 57.4985 59.9011 57.4455 60.0196 57.3625C60.1336 57.2842 60.2385 57.1206 60.3343 56.8718C60.4346 56.623 60.4757 56.4709 60.4574 56.4156L57.7211 48.5497H59.8897L61.5178 54.107L63.0569 48.5497H65.1297L62.5712 55.9594C62.0787 57.3879 61.6888 58.2726 61.4015 58.6136C61.1142 58.9592 60.5395 59.132 59.6776 59.132C59.5043 59.132 59.3652 59.1297 59.2603 59.1251C59.1554 59.1251 58.9981 59.1182 58.7883 59.1044V57.5284Z" fill="white"/>
<path d="M67.9445 53.6784C67.9855 54.0286 68.0745 54.2775 68.2113 54.4249C68.453 54.6876 68.8999 54.8189 69.5521 54.8189C69.9352 54.8189 70.2384 54.7613 70.4619 54.6461C70.6899 54.5309 70.8039 54.3581 70.8039 54.1277C70.8039 53.9065 70.7127 53.7383 70.5303 53.6231C70.3479 53.5079 69.6707 53.3098 68.4986 53.0287C67.6549 52.8167 67.0598 52.5518 66.7132 52.2338C66.3666 51.9205 66.1933 51.4689 66.1933 50.879C66.1933 50.1832 66.4623 49.5865 67.0005 49.0888C67.5432 48.5865 68.3048 48.3354 69.2853 48.3354C70.2156 48.3354 70.9727 48.5243 71.5564 48.9022C72.1447 49.2754 72.4822 49.9229 72.5688 50.8445H70.6192C70.5919 50.591 70.5212 50.3906 70.4072 50.2431C70.1928 49.9759 69.828 49.8422 69.3127 49.8422C68.8885 49.8422 68.5853 49.9091 68.4028 50.0427C68.225 50.1763 68.136 50.333 68.136 50.5127C68.136 50.7385 68.2318 50.9021 68.4234 51.0035C68.6149 51.1094 69.2921 51.2915 70.4551 51.5495C71.2303 51.7338 71.8118 52.0126 72.1994 52.3859C72.5825 52.7637 72.7741 53.2361 72.7741 53.8028C72.7741 54.5493 72.4982 55.1599 71.9463 55.6345C71.3991 56.1045 70.5508 56.3396 69.4016 56.3396C68.2295 56.3396 67.363 56.0907 66.8021 55.5931C66.2457 55.0908 65.9675 54.4526 65.9675 53.6784H67.9445Z" fill="white"/>
<path d="M73.5982 50.022V48.6188H74.638V46.5175H76.5671V48.6188H77.7779V50.022H76.5671V54.0033C76.5671 54.312 76.6059 54.5056 76.6834 54.5839C76.7609 54.6576 76.9981 54.6945 77.3949 54.6945C77.4541 54.6945 77.5157 54.6945 77.5796 54.6945C77.648 54.6899 77.7141 54.6853 77.7779 54.6807V56.1529L76.8544 56.1875C75.9332 56.2198 75.3039 56.0585 74.9664 55.7037C74.7475 55.4779 74.638 55.13 74.638 54.6599V50.022H73.5982Z" fill="white"/>
<path d="M82.1114 49.9736C81.6599 49.9736 81.3088 50.1164 81.0579 50.4021C80.8117 50.6878 80.6566 51.0749 80.5928 51.5633H83.6232C83.5913 51.0426 83.434 50.6486 83.1512 50.3814C82.873 50.1095 82.5264 49.9736 82.1114 49.9736ZM82.1114 48.3492C82.7316 48.3492 83.2903 48.4667 83.7874 48.7018C84.2845 48.9368 84.6949 49.3077 85.0187 49.8146C85.3106 50.2616 85.4999 50.78 85.5865 51.3698C85.6367 51.7154 85.6572 52.2131 85.6481 52.8628H80.5449C80.5723 53.6185 80.8071 54.1484 81.2495 54.4526C81.5186 54.6415 81.8423 54.736 82.2209 54.736C82.6222 54.736 82.9483 54.6208 83.1991 54.3904C83.3359 54.2659 83.4568 54.0931 83.5617 53.872H85.5523C85.5022 54.3189 85.2718 54.7728 84.8614 55.2336C84.2229 55.9663 83.3291 56.3326 82.1798 56.3326C81.2312 56.3326 80.3944 56.0239 79.6693 55.4064C78.9442 54.789 78.5816 53.7844 78.5816 52.3928C78.5816 51.0887 78.9077 50.0888 79.5598 49.393C80.2165 48.6971 81.0671 48.3492 82.1114 48.3492Z" fill="white"/>
<path d="M95.4405 48.3838C95.7688 48.3838 96.0926 48.4483 96.4119 48.5773C96.7311 48.7064 97.0207 48.9322 97.2806 49.2547C97.4904 49.5174 97.6318 49.8399 97.7048 50.2224C97.7504 50.4758 97.7732 50.8468 97.7732 51.3352L97.7595 56.0838H95.762V51.2869C95.762 51.0012 95.7164 50.7661 95.6252 50.5818C95.4519 50.2316 95.1327 50.0565 94.6675 50.0565C94.1293 50.0565 93.7577 50.2823 93.5524 50.7339C93.4475 50.9735 93.3951 51.2615 93.3951 51.5979V56.0838H91.4318V51.5979C91.4318 51.1509 91.3862 50.8261 91.295 50.6233C91.1308 50.2593 90.8093 50.0772 90.3304 50.0772C89.7741 50.0772 89.4001 50.2593 89.2086 50.6233C89.1037 50.8307 89.0512 51.1394 89.0512 51.5495V56.0838H87.0742V48.5635H88.9691V49.6625C89.2108 49.2708 89.4389 48.9921 89.6532 48.8262C90.0317 48.5313 90.522 48.3838 91.124 48.3838C91.694 48.3838 92.1546 48.5105 92.5058 48.764C92.7886 48.999 93.0029 49.3008 93.1488 49.6694C93.4042 49.2271 93.7212 48.9022 94.0997 48.6948C94.501 48.4875 94.948 48.3838 95.4405 48.3838Z" fill="white"/>
<path d="M101.231 53.6784C101.272 54.0286 101.361 54.2775 101.498 54.4249C101.74 54.6876 102.186 54.8189 102.839 54.8189C103.222 54.8189 103.525 54.7613 103.748 54.6461C103.976 54.5309 104.09 54.3581 104.09 54.1277C104.09 53.9065 103.999 53.7383 103.817 53.6231C103.634 53.5079 102.957 53.3098 101.785 53.0287C100.941 52.8167 100.346 52.5518 99.9997 52.2338C99.6531 51.9205 99.4798 51.4689 99.4798 50.879C99.4798 50.1832 99.7489 49.5865 100.287 49.0888C100.83 48.5865 101.591 48.3354 102.572 48.3354C103.502 48.3354 104.259 48.5243 104.843 48.9022C105.431 49.2754 105.769 49.9229 105.855 50.8445H103.906C103.878 50.591 103.808 50.3906 103.694 50.2431C103.479 49.9759 103.115 49.8422 102.599 49.8422C102.175 49.8422 101.872 49.9091 101.689 50.0427C101.512 50.1763 101.423 50.333 101.423 50.5127C101.423 50.7385 101.518 50.9021 101.71 51.0035C101.901 51.1094 102.579 51.2915 103.742 51.5495C104.517 51.7338 105.098 52.0126 105.486 52.3859C105.869 52.7637 106.061 53.2361 106.061 53.8028C106.061 54.5493 105.785 55.1599 105.233 55.6345C104.686 56.1045 103.837 56.3396 102.688 56.3396C101.516 56.3396 100.65 56.0907 100.089 55.5931C99.5322 55.0908 99.2541 54.4526 99.2541 53.6784H101.231Z" fill="white"/>
</svg>
