<svg width="60" height="34" viewBox="0 0 60 34" fill="none" xmlns="http://www.w3.org/2000/svg">
<path fill-rule="evenodd" clip-rule="evenodd" d="M29.1786 7.1734C29.5084 7.47448 29.4426 8.24273 29.3437 8.51066C29.2448 8.7107 28.816 8.81092 28.42 8.74424C27.9916 8.64402 27.5959 9.01097 27.4639 9.61271C27.3323 10.1805 27.5628 10.682 27.9585 10.8158C28.42 10.8825 28.7171 11.584 28.7171 11.8184C28.7502 12.0851 28.4531 12.3862 28.0574 12.4864C27.6618 12.6533 27.497 13.2211 27.6617 13.7562C27.8269 14.324 28.2883 14.6578 28.7171 14.5244C29.0801 14.3907 29.5416 14.4909 29.6401 14.6913C29.7398 14.8922 29.9041 15.6604 29.6074 15.9619C29.3437 16.2953 29.4753 16.8635 29.8714 17.2648C30.3002 17.6317 30.8933 17.6988 31.1565 17.3982C31.4549 17.0639 32.2135 17.1642 32.4428 17.2648C32.6746 17.3315 32.7735 17.7655 32.6746 18.1664C32.6088 18.6008 32.9709 19.0349 33.5313 19.1686C34.0925 19.2692 34.6198 19.0348 34.7195 18.6344C34.8172 18.1999 35.5104 17.8653 35.7414 17.8653C35.9719 17.8322 36.301 18.1332 36.4342 18.5341C36.5658 18.9682 37.0927 19.1355 37.6543 18.9682C38.1816 18.7677 38.5441 18.3002 38.4121 17.8989C38.2801 17.498 38.7412 16.83 38.9402 16.6966C39.1049 16.5624 39.5333 16.6626 39.8639 16.9637C40.1276 17.2648 40.7207 17.1306 41.084 16.6966C41.5124 16.2622 41.5451 15.6604 41.2157 15.3929C40.9524 15.0926 40.9839 14.324 41.084 14.1231C41.2157 13.8895 41.6109 13.7562 42.007 13.8564C42.4358 13.9562 42.8976 13.5557 42.9634 12.9875C43.1278 12.4197 42.8976 11.8847 42.4677 11.7849C42.0728 11.6838 41.743 10.9831 41.7098 10.7487C41.6767 10.5151 41.9735 10.214 42.3699 10.0471C42.7656 9.94692 42.9634 9.41225 42.7656 8.81091C42.6336 8.24272 42.1071 7.94164 41.7757 8.04227C41.3477 8.17604 40.688 7.74162 40.5556 7.54158C40.3912 7.34113 40.5225 6.90629 40.8192 6.60562C41.084 6.30495 40.9524 5.70321 40.5556 5.30232C40.1276 4.93497 39.566 4.8683 39.2696 5.16897C39.006 5.47004 38.1816 5.43608 37.9841 5.33545C37.7859 5.23563 37.6543 4.80162 37.7532 4.40032C37.8521 3.99903 37.4553 3.53186 36.8953 3.43123C36.301 3.29787 35.8072 3.53186 35.6751 3.96589C35.642 4.36718 34.9173 4.70098 34.6856 4.73493C34.455 4.73493 34.1587 4.43386 33.9936 4.03257C33.8951 3.63208 33.3335 3.46436 32.8062 3.63207C32.245 3.79898 31.9159 4.3001 32.0476 4.70099C32.1461 5.10188 31.7181 5.70321 31.4876 5.87052C31.3224 6.00428 30.8933 5.90366 30.5965 5.6034C30.3002 5.33546 29.7063 5.43609 29.3106 5.87052C28.9481 6.30495 28.8818 6.90628 29.1786 7.1734V7.1734ZM33.7953 6.87315C36.2351 6.10451 38.7755 7.44093 39.566 9.88022C40.3581 12.3195 39.006 14.8922 36.5989 15.694C34.2245 16.4622 31.6523 15.1258 30.8933 12.72C30.1019 10.2807 31.4549 7.67453 33.7953 6.87315" fill="#5A27F2"/>
<path fill-rule="evenodd" clip-rule="evenodd" d="M17.8016 14.1902C18.0657 14.4242 17.9999 15.0259 17.9341 15.1257C17.8343 15.3262 17.5376 15.3929 17.2735 15.3262C16.9441 15.2595 16.6477 15.5602 16.5484 15.9619C16.4822 16.3955 16.6477 16.7964 16.9441 16.8299C17.2408 16.9301 17.4718 17.4317 17.5049 17.5982C17.5049 17.7986 17.3067 17.9995 17.0099 18.0997C16.7136 18.1999 16.5484 18.6008 16.6809 19.0017C16.8125 19.4361 17.1746 19.6697 17.4718 19.5695C17.7354 19.4697 18.0657 19.5363 18.1315 19.7036C18.2304 19.8374 18.362 20.3717 18.1315 20.6392C17.9341 20.8728 18.0326 21.2741 18.362 21.5743C18.6592 21.875 19.0544 21.9085 19.2527 21.6746C19.4832 21.441 20.0444 21.5077 20.2087 21.5408C20.3412 21.641 20.4401 21.9421 20.3411 22.2767C20.308 22.5434 20.5717 22.8772 21.0001 22.9447C21.4292 23.0445 21.7918 22.9108 21.858 22.577C21.9569 22.2767 22.4515 22.0423 22.6162 22.0423C22.8144 22.0088 23.0123 22.2096 23.1439 22.5434C23.2097 22.8105 23.6058 22.9108 24.0018 22.8105C24.3971 22.6772 24.6608 22.3434 24.5618 22.0423C24.496 21.7752 24.7924 21.2741 24.9248 21.1738C25.0895 21.0732 25.3536 21.1403 25.6172 21.3743C25.8477 21.5408 26.2438 21.5076 26.5079 21.1738C26.8042 20.8728 26.8373 20.4048 26.6399 20.2044C26.4085 20.0043 26.4751 19.4361 26.5079 19.2692C26.6068 19.1019 26.9031 19.0017 27.1999 19.1019C27.5297 19.1686 27.8269 18.8679 27.8927 18.4674C27.9916 18.033 27.8269 17.6317 27.5297 17.565C27.2326 17.5315 27.002 16.9972 26.9689 16.7964C26.9362 16.6626 27.1668 16.429 27.4639 16.3288C27.7611 16.2286 27.86 15.8277 27.7611 15.3929C27.6286 14.9924 27.2992 14.7588 27.002 14.8586C26.7057 14.9257 26.2438 14.6242 26.1122 14.4909C26.0125 14.324 26.1122 13.9897 26.3096 13.7893C26.5079 13.5557 26.4412 13.1213 26.1122 12.8537C25.8146 12.5531 25.3536 12.4864 25.1884 12.7535C24.9575 12.9544 24.3971 12.9204 24.2324 12.8537C24.1004 12.7871 24.0345 12.4864 24.1004 12.1853C24.1335 11.8847 23.8694 11.5508 23.4403 11.4502C23.045 11.3835 22.6489 11.5509 22.5831 11.8515C22.5173 12.1522 22.0227 12.3862 21.8249 12.4197C21.6602 12.4529 21.4619 12.2193 21.3299 11.9182C21.2641 11.6171 20.8353 11.4502 20.4401 11.6171C20.0771 11.7182 19.8131 12.0851 19.8789 12.3862C19.9782 12.6868 19.6479 13.1548 19.5163 13.2546C19.3516 13.3549 19.0879 13.2882 18.8239 13.0542C18.6257 12.8537 18.1973 12.9544 17.9341 13.2546C17.6365 13.5888 17.5707 13.9897 17.8016 14.1902V14.1902ZM21.1983 13.9897C22.9792 13.4215 24.8259 14.3906 25.3867 16.1619C25.9467 17.9324 24.9906 19.8706 23.2428 20.4048C21.4619 21.0069 19.6152 20.0374 19.0544 18.233C18.4609 16.4622 19.4505 14.5575 21.1983 13.9897Z" fill="black"/>
<path fill-rule="evenodd" clip-rule="evenodd" d="M19.6478 3.16408C19.8456 3.33098 19.8129 3.79897 19.714 3.93233C19.6809 4.03255 19.4173 4.13277 19.2194 4.06609C18.9558 4.03255 18.6917 4.26694 18.6255 4.60075C18.5593 4.93496 18.6917 5.23562 18.9558 5.3023C19.1867 5.36898 19.3514 5.77028 19.3845 5.93718C19.3845 6.07135 19.2194 6.23825 18.9558 6.33807C18.7252 6.40515 18.6255 6.73936 18.7252 7.07317C18.8238 7.40778 19.1209 7.60783 19.3514 7.50801C19.582 7.44093 19.8456 7.47446 19.9122 7.60782C19.978 7.74159 20.077 8.20956 19.8787 8.37646C19.714 8.54377 19.8129 8.87759 20.077 9.14471C20.3079 9.3787 20.6374 9.41223 20.8352 9.21179C20.9999 9.04448 21.4618 9.07763 21.5942 9.14471C21.7258 9.17785 21.7589 9.41224 21.7258 9.67937C21.66 9.9469 21.8906 10.1805 22.22 10.2472C22.583 10.3142 22.8801 10.214 22.9132 9.9469C22.979 9.67937 23.4074 9.51246 23.539 9.47932C23.7042 9.47932 23.8693 9.64583 23.9351 9.91336C24.0017 10.1473 24.3312 10.2472 24.6606 10.1473C24.9574 10.0471 25.1883 9.74686 25.0894 9.51247C25.0563 9.27889 25.3203 8.87758 25.3865 8.8109C25.5185 8.74422 25.7818 8.81091 25.9465 8.97782C26.1447 9.14472 26.5077 9.07762 26.7382 8.8109C26.9361 8.54377 27.0019 8.20957 26.7714 8.00912C26.6066 7.87495 26.6397 7.40779 26.7055 7.24048C26.7714 7.10631 27.0019 7.07318 27.2655 7.10632C27.4969 7.1734 27.7609 6.93981 27.8267 6.6056C27.8598 6.27139 27.7609 5.97072 27.5296 5.90363C27.2655 5.83695 27.0677 5.43607 27.035 5.26917C27.035 5.13541 27.2324 4.93494 27.4638 4.86826C27.6943 4.80158 27.794 4.46738 27.6943 4.13277C27.5958 3.79896 27.3321 3.59851 27.0677 3.66519C26.8372 3.76541 26.475 3.46435 26.3753 3.39767C26.3095 3.26431 26.3753 3.03072 26.5077 2.82947C26.7055 2.62943 26.6397 2.29561 26.3753 2.06122C26.112 1.82764 25.7818 1.76096 25.6502 1.99454C25.4523 2.16145 24.9905 2.1279 24.8588 2.06122C24.7591 1.99454 24.6606 1.76095 24.7264 1.49302C24.7922 1.25984 24.5286 0.992319 24.2322 0.925235C23.8693 0.858554 23.5721 0.992327 23.5063 1.22631C23.4401 1.49304 23.0448 1.69348 22.8801 1.72742C22.7477 1.72742 22.583 1.52657 22.4841 1.29299C22.4182 1.05941 22.1215 0.95877 21.7589 1.0594C21.4618 1.15962 21.264 1.4599 21.3298 1.69348C21.396 1.92788 21.1323 2.32917 20.9999 2.39585C20.901 2.49567 20.6373 2.39583 20.4726 2.26247C20.3079 2.06122 19.978 2.12791 19.714 2.39585C19.5162 2.62943 19.4504 2.99717 19.6478 3.16408V3.16408ZM22.3851 2.99718C23.8035 2.5292 25.3534 3.29784 25.7818 4.76804C26.2437 6.2047 25.4854 7.74159 24.0344 8.20957C22.6161 8.67714 21.1323 7.87496 20.6374 6.4387C20.1755 5.00164 20.9668 3.46435 22.3851 2.99718Z" fill="black"/>
<path d="M2.29851 27.1352C2.54761 27.1352 2.76903 27.1911 2.96278 27.303C3.15652 27.4123 3.31378 27.5648 3.43455 27.7606V25.7775H4.5253V31.3911H3.47984V30.8152C3.32636 31.0618 3.15149 31.2411 2.95523 31.3529C2.75897 31.4648 2.5149 31.5207 2.22303 31.5207C1.74245 31.5207 1.33735 31.325 1.00774 30.9335C0.680639 30.5394 0.51709 30.0347 0.51709 29.4195C0.51709 28.7102 0.678123 28.1521 1.00019 27.7453C1.32477 27.3386 1.75755 27.1352 2.29851 27.1352ZM2.53252 30.6055C2.83697 30.6055 3.06845 30.4911 3.22697 30.2623C3.38549 30.0335 3.46474 29.7373 3.46474 29.3737C3.46474 28.8652 3.33768 28.5017 3.08355 28.283C2.92755 28.1508 2.74639 28.0847 2.54006 28.0847C2.22555 28.0847 1.99406 28.2055 1.84561 28.447C1.69967 28.686 1.62671 28.9835 1.62671 29.3394C1.62671 29.7233 1.70093 30.0309 1.84938 30.2623C2.00035 30.4911 2.22806 30.6055 2.53252 30.6055Z" fill="black"/>
<path d="M7.20679 28.0199C6.9577 28.0199 6.76395 28.0987 6.62557 28.2563C6.4897 28.414 6.40415 28.6275 6.36892 28.897H8.04089C8.02328 28.6097 7.93647 28.3924 7.78047 28.2449C7.62699 28.0949 7.43576 28.0199 7.20679 28.0199ZM7.20679 27.1237C7.54899 27.1237 7.85722 27.1886 8.13147 27.3182C8.40573 27.4479 8.63219 27.6525 8.81083 27.9322C8.97186 28.1788 9.07628 28.4648 9.12409 28.7902C9.15177 28.9809 9.16309 29.2555 9.15806 29.614H6.3425C6.3576 30.0309 6.48718 30.3233 6.73124 30.4911C6.8797 30.5953 7.05834 30.6474 7.26718 30.6474C7.4886 30.6474 7.66851 30.5839 7.80689 30.4568C7.88238 30.3881 7.94905 30.2928 8.00693 30.1707H9.10522C9.07754 30.4174 8.95048 30.6678 8.72402 30.922C8.37177 31.3262 7.8786 31.5284 7.24454 31.5284C6.72118 31.5284 6.25947 31.358 5.8594 31.0174C5.45934 30.6767 5.2593 30.1224 5.2593 29.3546C5.2593 28.6352 5.43921 28.0835 5.79902 27.6996C6.16134 27.3157 6.6306 27.1237 7.20679 27.1237Z" fill="black"/>
<path d="M10.8016 30.064C10.8243 30.2572 10.8734 30.3945 10.9488 30.4758C11.0822 30.6207 11.3288 30.6932 11.6886 30.6932C11.8999 30.6932 12.0673 30.6614 12.1906 30.5979C12.3164 30.5343 12.3793 30.439 12.3793 30.3118C12.3793 30.1898 12.3289 30.097 12.2283 30.0335C12.1277 29.9699 11.754 29.8606 11.1074 29.7055C10.6419 29.5885 10.3135 29.4424 10.1223 29.2669C9.93107 29.0941 9.83545 28.8449 9.83545 28.5195C9.83545 28.1356 9.9839 27.8063 10.2808 27.5318C10.5802 27.2547 11.0004 27.1161 11.5414 27.1161C12.0547 27.1161 12.4724 27.2203 12.7944 27.4288C13.119 27.6347 13.3052 27.9919 13.353 28.5004H12.2774C12.2623 28.3606 12.2233 28.25 12.1604 28.1686C12.0421 28.0212 11.8408 27.9474 11.5565 27.9474C11.3225 27.9474 11.1552 27.9843 11.0545 28.058C10.9564 28.1318 10.9073 28.2182 10.9073 28.3174C10.9073 28.4419 10.9602 28.5322 11.0658 28.5881C11.1715 28.6466 11.5452 28.747 12.1868 28.8894C12.6145 28.9911 12.9353 29.1449 13.1492 29.3508C13.3606 29.5593 13.4662 29.8199 13.4662 30.1326C13.4662 30.5445 13.314 30.8813 13.0096 31.1432C12.7076 31.4025 12.2396 31.5322 11.6056 31.5322C10.9589 31.5322 10.4808 31.3949 10.1714 31.1203C9.86439 30.8432 9.7109 30.4911 9.7109 30.064H10.8016Z" fill="black"/>
<path d="M15.4495 26.7386H14.3588V25.7356H15.4495V26.7386ZM14.3588 27.2343H15.4495V31.3911H14.3588V27.2343Z" fill="black"/>
<path d="M18.3386 30.4987C18.5902 30.4987 18.8028 30.4034 18.9764 30.2127C19.15 30.0195 19.2368 29.7131 19.2368 29.2936C19.2368 28.8996 19.1538 28.5996 18.9878 28.3936C18.8242 28.1877 18.604 28.0847 18.3273 28.0847C17.9498 28.0847 17.6894 28.264 17.546 28.6224C17.4705 28.8131 17.4328 29.0483 17.4328 29.328C17.4328 29.5695 17.473 29.7843 17.5536 29.9724C17.6995 30.3233 17.9612 30.4987 18.3386 30.4987ZM18.0706 27.1352C18.2769 27.1352 18.4568 27.1669 18.6103 27.2305C18.872 27.3398 19.0834 27.5407 19.2444 27.833V27.2343H20.2899V31.1775C20.2899 31.714 20.2005 32.1182 20.0219 32.3902C19.7149 32.858 19.1261 33.0919 18.2556 33.0919C17.7297 33.0919 17.3007 32.9877 16.9686 32.7792C16.6364 32.5707 16.4527 32.2593 16.4175 31.8449H17.5875C17.6177 31.972 17.6668 32.0635 17.7347 32.1195C17.8505 32.2186 18.0455 32.2682 18.3197 32.2682C18.7072 32.2682 18.9664 32.1373 19.0972 31.8754C19.1828 31.7076 19.2255 31.4254 19.2255 31.0288V30.7618C19.1224 30.9398 19.0117 31.0733 18.8934 31.1623C18.6795 31.3275 18.4015 31.4101 18.0593 31.4101C17.5309 31.4101 17.1082 31.2233 16.7912 30.8496C16.4766 30.4733 16.3194 29.9648 16.3194 29.3241C16.3194 28.7063 16.4716 28.1877 16.7761 27.7682C17.0805 27.3462 17.512 27.1352 18.0706 27.1352Z" fill="black"/>
<path d="M23.6545 27.1352C24.0797 27.1352 24.4269 27.2483 24.6962 27.4746C24.9679 27.6983 25.1038 28.0708 25.1038 28.5919V31.3911H24.0017V28.8627C24.0017 28.6441 23.9728 28.4763 23.9149 28.3593C23.8092 28.1458 23.6079 28.039 23.311 28.039C22.9462 28.039 22.6958 28.1953 22.56 28.508C22.4895 28.6733 22.4543 28.8843 22.4543 29.1411V31.3911H21.3824V27.2419H22.4203V27.8483C22.5587 27.6347 22.6895 27.4809 22.8128 27.3869C23.0343 27.2191 23.3148 27.1352 23.6545 27.1352Z" fill="black"/>
<path d="M29.2439 30.064C29.2666 30.2572 29.3156 30.3945 29.3911 30.4758C29.5245 30.6207 29.7711 30.6932 30.1309 30.6932C30.3422 30.6932 30.5095 30.6614 30.6328 30.5979C30.7586 30.5343 30.8215 30.439 30.8215 30.3118C30.8215 30.1898 30.7712 30.097 30.6706 30.0335C30.5699 29.9699 30.1963 29.8606 29.5496 29.7055C29.0842 29.5885 28.7558 29.4424 28.5646 29.2669C28.3733 29.0941 28.2777 28.8449 28.2777 28.5195C28.2777 28.1356 28.4262 27.8063 28.7231 27.5318C29.0225 27.2547 29.4427 27.1161 29.9837 27.1161C30.497 27.1161 30.9146 27.2203 31.2367 27.4288C31.5613 27.6347 31.7475 27.9919 31.7953 28.5004H30.7196C30.7045 28.3606 30.6655 28.25 30.6026 28.1686C30.4844 28.0212 30.2831 27.9474 29.9988 27.9474C29.7648 27.9474 29.5974 27.9843 29.4968 28.058C29.3987 28.1318 29.3496 28.2182 29.3496 28.3174C29.3496 28.4419 29.4024 28.5322 29.5081 28.5881C29.6138 28.6466 29.9874 28.747 30.6291 28.8894C31.0568 28.9911 31.3776 29.1449 31.5915 29.3508C31.8028 29.5593 31.9085 29.8199 31.9085 30.1326C31.9085 30.5445 31.7563 30.8813 31.4518 31.1432C31.1499 31.4025 30.6819 31.5322 30.0478 31.5322C29.4012 31.5322 28.9231 31.3949 28.6136 31.1203C28.3067 30.8432 28.1532 30.4911 28.1532 30.064H29.2439Z" fill="black"/>
<path d="M32.952 32.1881L33.0879 32.1957C33.1936 32.2008 33.2942 32.197 33.3898 32.1843C33.4854 32.1716 33.5659 32.1423 33.6314 32.0966C33.6943 32.0534 33.7521 31.9631 33.805 31.8258C33.8603 31.6885 33.883 31.6046 33.8729 31.5741L32.3632 27.2343H33.5597L34.4579 30.3004L35.3071 27.2343H36.4507L35.0391 31.3224C34.7674 32.1106 34.5523 32.5987 34.3938 32.7868C34.2352 32.9775 33.9182 33.0728 33.4427 33.0728C33.347 33.0728 33.2703 33.0716 33.2124 33.069C33.1546 33.069 33.0678 33.0652 32.952 33.0576V32.1881Z" fill="black"/>
<path d="M38.0037 30.064C38.0264 30.2572 38.0754 30.3945 38.1509 30.4758C38.2843 30.6207 38.5308 30.6932 38.8906 30.6932C39.102 30.6932 39.2693 30.6614 39.3926 30.5979C39.5184 30.5343 39.5813 30.439 39.5813 30.3118C39.5813 30.1898 39.531 30.097 39.4304 30.0335C39.3297 29.9699 38.9561 29.8606 38.3094 29.7055C37.8439 29.5885 37.5156 29.4424 37.3244 29.2669C37.1331 29.0941 37.0375 28.8449 37.0375 28.5195C37.0375 28.1356 37.186 27.8063 37.4829 27.5318C37.7823 27.2547 38.2025 27.1161 38.7435 27.1161C39.2567 27.1161 39.6744 27.2203 39.9965 27.4288C40.3211 27.6347 40.5073 27.9919 40.5551 28.5004H39.4794C39.4643 28.3606 39.4253 28.25 39.3624 28.1686C39.2442 28.0212 39.0429 27.9474 38.7586 27.9474C38.5246 27.9474 38.3572 27.9843 38.2566 28.058C38.1585 28.1318 38.1094 28.2182 38.1094 28.3174C38.1094 28.4419 38.1622 28.5322 38.2679 28.5881C38.3736 28.6466 38.7472 28.747 39.3888 28.8894C39.8166 28.9911 40.1374 29.1449 40.3513 29.3508C40.5626 29.5593 40.6683 29.8199 40.6683 30.1326C40.6683 30.5445 40.5161 30.8813 40.2116 31.1432C39.9097 31.4025 39.4417 31.5322 38.8076 31.5322C38.161 31.5322 37.6829 31.3949 37.3734 31.1203C37.0664 30.8432 36.913 30.4911 36.913 30.064H38.0037Z" fill="black"/>
<path d="M41.123 28.0466V27.2725H41.6967V26.1131H42.761V27.2725H43.4291V28.0466H42.761V30.2432C42.761 30.4135 42.7824 30.5203 42.8252 30.5635C42.868 30.6042 42.9988 30.6246 43.2177 30.6246C43.2504 30.6246 43.2844 30.6246 43.3196 30.6246C43.3573 30.622 43.3938 30.6195 43.4291 30.6169V31.4292L42.9195 31.4483C42.4113 31.4661 42.064 31.3771 41.8779 31.1813C41.7571 31.0568 41.6967 30.8648 41.6967 30.6055V28.0466H41.123Z" fill="black"/>
<path d="M45.8199 28.0199C45.5708 28.0199 45.3771 28.0987 45.2387 28.2563C45.1028 28.414 45.0173 28.6275 44.9821 28.897H46.654C46.6364 28.6097 46.5496 28.3924 46.3936 28.2449C46.2401 28.0949 46.0489 28.0199 45.8199 28.0199ZM45.8199 27.1237C46.1621 27.1237 46.4704 27.1886 46.7446 27.3182C47.0189 27.4479 47.2453 27.6525 47.424 27.9322C47.585 28.1788 47.6894 28.4648 47.7372 28.7902C47.7649 28.9809 47.7762 29.2555 47.7712 29.614H44.9556C44.9707 30.0309 45.1003 30.3233 45.3444 30.4911C45.4928 30.5953 45.6715 30.6474 45.8803 30.6474C46.1017 30.6474 46.2817 30.5839 46.42 30.4568C46.4955 30.3881 46.5622 30.2928 46.6201 30.1707H47.7184C47.6907 30.4174 47.5636 30.6678 47.3372 30.922C46.9849 31.3262 46.4917 31.5284 45.8577 31.5284C45.3343 31.5284 44.8726 31.358 44.4725 31.0174C44.0725 30.6767 43.8724 30.1224 43.8724 29.3546C43.8724 28.6352 44.0524 28.0835 44.4122 27.6996C44.7745 27.3157 45.2437 27.1237 45.8199 27.1237Z" fill="black"/>
<path d="M53.1739 27.1428C53.3551 27.1428 53.5337 27.1784 53.7098 27.2496C53.886 27.3208 54.0457 27.4453 54.1892 27.6233C54.3049 27.7682 54.3829 27.9462 54.4232 28.1572C54.4483 28.297 54.4609 28.5017 54.4609 28.7712L54.4534 31.3911H53.3513V28.7445C53.3513 28.5869 53.3261 28.4572 53.2758 28.3555C53.1802 28.1623 53.0041 28.0657 52.7474 28.0657C52.4505 28.0657 52.2454 28.1902 52.1322 28.4394C52.0744 28.5716 52.0454 28.7305 52.0454 28.9161V31.3911H50.9622V28.9161C50.9622 28.6695 50.9371 28.4902 50.8867 28.3784C50.7962 28.1775 50.6188 28.0771 50.3546 28.0771C50.0476 28.0771 49.8413 28.1775 49.7356 28.3784C49.6777 28.4928 49.6488 28.6631 49.6488 28.8894V31.3911H48.5581V27.2419H49.6035V27.8483C49.7369 27.6322 49.8627 27.4784 49.9809 27.3869C50.1898 27.2241 50.4603 27.1428 50.7924 27.1428C51.1069 27.1428 51.361 27.2127 51.5548 27.3525C51.7108 27.4822 51.829 27.6487 51.9095 27.8521C52.0504 27.608 52.2253 27.4288 52.4342 27.3144C52.6556 27.2 52.9022 27.1428 53.1739 27.1428Z" fill="black"/>
<path d="M56.3687 30.064C56.3913 30.2572 56.4404 30.3945 56.5159 30.4758C56.6492 30.6207 56.8958 30.6932 57.2556 30.6932C57.467 30.6932 57.6343 30.6614 57.7576 30.5979C57.8834 30.5343 57.9463 30.439 57.9463 30.3118C57.9463 30.1898 57.896 30.097 57.7953 30.0335C57.6947 29.9699 57.321 29.8606 56.6744 29.7055C56.2089 29.5885 55.8806 29.4424 55.6893 29.2669C55.4981 29.0941 55.4025 28.8449 55.4025 28.5195C55.4025 28.1356 55.5509 27.8063 55.8479 27.5318C56.1473 27.2547 56.5675 27.1161 57.1084 27.1161C57.6217 27.1161 58.0394 27.2203 58.3615 27.4288C58.6861 27.6347 58.8722 27.9919 58.9201 28.5004H57.8444C57.8293 28.3606 57.7903 28.25 57.7274 28.1686C57.6091 28.0212 57.4079 27.9474 57.1235 27.9474C56.8895 27.9474 56.7222 27.9843 56.6216 28.058C56.5234 28.1318 56.4744 28.2182 56.4744 28.3174C56.4744 28.4419 56.5272 28.5322 56.6329 28.5881C56.7386 28.6466 57.1122 28.747 57.7538 28.8894C58.1816 28.9911 58.5024 29.1449 58.7162 29.3508C58.9276 29.5593 59.0333 29.8199 59.0333 30.1326C59.0333 30.5445 58.8811 30.8813 58.5766 31.1432C58.2747 31.4025 57.8067 31.5322 57.1726 31.5322C56.526 31.5322 56.0479 31.3949 55.7384 31.1203C55.4314 30.8432 55.2779 30.4911 55.2779 30.064H56.3687Z" fill="black"/>
</svg>
