<svg width="40" height="40" viewBox="0 0 40 40" fill="none" xmlns="http://www.w3.org/2000/svg">
<path d="M32.0636 20.1491H28.776C28.5362 20.1491 28.3415 20.3439 28.3415 20.5844C28.3415 25.0468 24.7117 28.6767 20.2492 28.6767C15.7874 28.6767 12.1576 25.0468 12.1576 20.5844C12.1576 20.3439 11.9622 20.1491 11.7224 20.1491H8.43477C8.19494 20.1491 8.00024 20.3439 8.00024 20.5844C8.00024 27.3387 13.4948 32.8333 20.2492 32.8333C27.0042 32.8333 32.4988 27.3387 32.4988 20.5844C32.4988 20.3439 32.3041 20.1491 32.0636 20.1491Z" fill="#ADB5BD"/>
<path d="M25.9614 10.1565L20.5166 5.91032C20.3859 5.80792 20.2081 5.78971 20.0585 5.86247C19.909 5.93523 19.8147 6.08681 19.8147 6.25321V8.54037C13.261 8.76942 8.00024 14.1731 8.00024 20.7819C8.00024 21.0217 8.19494 21.2164 8.43477 21.2164H11.7224C11.9622 21.2164 12.1576 21.0217 12.1576 20.7819C12.1576 16.4656 15.5543 12.9274 19.8147 12.701V14.7464C19.8147 14.9128 19.909 15.0637 20.0585 15.1371C20.2081 15.2099 20.3859 15.1917 20.5166 15.0893L25.9614 10.8424C26.0664 10.7602 26.1284 10.6335 26.1284 10.4994C26.1284 10.3654 26.0664 10.2387 25.9614 10.1565Z" fill="#845EF7"/>
<path d="M19.9028 22.8494H16.0581V21.9076L17.3516 20.5993C17.7208 20.2126 17.9626 19.9485 18.0765 19.8071C18.1897 19.6656 18.2685 19.545 18.3136 19.4426C18.3581 19.3415 18.3803 19.2358 18.3803 19.1246C18.3803 18.9865 18.3358 18.8774 18.2462 18.7979C18.1566 18.7184 18.0313 18.6786 17.8697 18.6786C17.7033 18.6786 17.5348 18.7265 17.3644 18.8221C17.194 18.9171 17.0013 19.0579 16.7864 19.2439L15.9995 18.3229C16.273 18.0797 16.5021 17.9046 16.688 17.7995C16.8746 17.6944 17.0767 17.6142 17.2957 17.559C17.514 17.5031 17.7599 17.4754 18.0327 17.4754C18.3756 17.4754 18.6821 17.5361 18.9516 17.6567C19.2204 17.7779 19.4299 17.9497 19.5781 18.1734C19.7263 18.397 19.8011 18.647 19.8011 18.9252C19.8011 19.1327 19.7748 19.3247 19.723 19.5012C19.6711 19.6777 19.5909 19.8509 19.4825 20.0213C19.3733 20.1917 19.2292 20.3703 19.0493 20.5589C18.8694 20.7482 18.4854 21.1053 17.8986 21.6314V21.6678H19.9028V22.8494Z" fill="#5A27F2"/>
<path d="M22.4242 20.7549V20.1392C22.4242 20.0233 22.4289 19.8664 22.437 19.6696C22.4451 19.4729 22.4525 19.3692 22.4572 19.3597H22.4168C22.3346 19.5457 22.2416 19.7195 22.1379 19.8818L21.5511 20.7549H22.4242ZM24.421 21.8248H23.8376V22.8494H22.4242V21.8248H20.3115V20.7731L22.5151 17.5523H23.8376V20.7549H24.421V21.8248Z" fill="#5A27F2"/>
<path d="M2.54855 19.4203H0.579367C0.259367 19.4203 0 19.6804 0 20.001C0 20.3204 0.259367 20.5804 0.579367 20.5804H2.54855C2.86855 20.5804 3.12792 20.3204 3.12792 20.001C3.12792 19.6804 2.86855 19.4203 2.54855 19.4203Z" fill="#5A27F2"/>
<path d="M39.4199 19.4203H37.4514C37.1314 19.4203 36.8713 19.6804 36.8713 20.001C36.8713 20.3204 37.1314 20.5804 37.4514 20.5804H39.4199C39.7406 20.5804 39.9999 20.3204 39.9999 20.001C39.9999 19.6804 39.7406 19.4203 39.4199 19.4203Z" fill="#5A27F2"/>
<path d="M19.9995 0.000134945C19.6795 0.000134945 19.4202 0.260168 19.4202 0.580168V2.54867C19.4202 2.86935 19.6795 3.12872 19.9995 3.12872C20.3202 3.12872 20.5796 2.86935 20.5796 2.54867V0.580168C20.5796 0.260168 20.3202 0.000134945 19.9995 0.000134945Z" fill="#5A27F2"/>
<path d="M19.9995 36.8722C19.6795 36.8722 19.4202 37.1316 19.4202 37.4523V39.4208C19.4202 39.7408 19.6795 40.0009 19.9995 40.0009C20.3202 40.0009 20.5796 39.7408 20.5796 39.4208V37.4523C20.5796 37.1316 20.3202 36.8722 19.9995 36.8722Z" fill="#5A27F2"/>
<path d="M6.67788 5.8578C6.45152 5.63144 6.08436 5.63144 5.858 5.8578C5.63164 6.08483 5.63164 6.45199 5.858 6.67835L7.24984 8.07086C7.36369 8.18404 7.5119 8.23996 7.66011 8.23996C7.80899 8.23996 7.95721 8.18404 8.07039 8.07086C8.29675 7.84451 8.29675 7.47734 8.07039 7.25098L6.67788 5.8578Z" fill="#5A27F2"/>
<path d="M32.7502 31.9314C32.5238 31.7037 32.1566 31.7037 31.9303 31.9314C31.7039 32.1571 31.7039 32.5243 31.9303 32.7506L33.3228 34.1431C33.436 34.2563 33.5842 34.3129 33.7324 34.3129C33.8813 34.3129 34.0288 34.2563 34.142 34.1431C34.3683 33.9168 34.3683 33.5496 34.142 33.3233L32.7502 31.9314Z" fill="#5A27F2"/>
<path d="M33.3228 5.8578L31.9303 7.25098C31.7039 7.47734 31.7039 7.84451 31.9303 8.07086C32.0434 8.18404 32.1917 8.23996 32.3405 8.23996C32.4888 8.23996 32.637 8.18404 32.7502 8.07086L34.142 6.67835C34.3683 6.45199 34.3683 6.08483 34.142 5.8578C33.9156 5.63144 33.5491 5.63144 33.3228 5.8578Z" fill="#5A27F2"/>
<path d="M7.24984 31.9314L5.858 33.3233C5.63164 33.5496 5.63164 33.9168 5.858 34.1431C5.97118 34.2563 6.1194 34.3129 6.26761 34.3129C6.41649 34.3129 6.5647 34.2563 6.67788 34.1431L8.07039 32.7506C8.29675 32.5243 8.29675 32.1571 8.07039 31.9314C7.84403 31.7037 7.47687 31.7037 7.24984 31.9314Z" fill="#5A27F2"/>
</svg>
