<svg width="40" height="20" viewBox="0 0 40 20" fill="none" xmlns="http://www.w3.org/2000/svg">
<path d="M39.9252 4.11842C39.7193 3.10365 39.0852 2.22699 38.1861 1.71327L38.0897 1.65857C35.8531 0.380936 33.1727 0.12608 30.7352 0.960709L30.7237 0.964707L8.643 9.94949C8.25885 10.1063 7.81945 9.93481 7.64252 9.55919L6.70614 7.57436L6.69313 7.54901C6.32592 6.88785 5.58081 6.54559 4.83963 6.69904C3.91028 6.89118 3.31087 7.80454 3.5032 8.73324L4.33977 12.7777C4.67362 14.3922 6.11428 15.5163 7.70843 15.5163C7.92166 15.5163 8.13742 15.4962 8.35372 15.4542L32.3315 10.8328C35.0697 10.5893 37.5943 9.19758 39.2612 7.01127C39.889 6.18798 40.1311 5.13319 39.9252 4.11842Z" fill="#D3D7DB"/>
<path d="M39.6312 3.25243L39.4699 2.92218L18.4876 9.33169L4.56177 13.5942L4.91099 14.0819C5.56278 14.9906 6.61436 15.5163 7.70838 15.5163C7.92288 15.5163 8.13897 15.4962 8.35393 15.4542L32.3317 10.8328C35.0699 10.5893 37.5945 9.19758 39.2614 7.01127C40.0907 5.92311 40.2322 4.48336 39.6312 3.25243Z" fill="#ADB5BD"/>
<path d="M29.011 6.33406L9.45694 0.125381C8.73453 -0.104126 7.9454 -0.0160608 7.29051 0.365561C6.63635 0.747849 6.1722 1.39233 6.01714 2.13423C5.96736 2.37174 6.07213 2.61392 6.27853 2.74135L18.4773 10.2323C18.5685 10.2884 18.6728 10.3171 18.7778 10.3171C18.8305 10.3171 18.8834 10.3097 18.9347 10.2957L28.9943 7.43355C29.2381 7.36417 29.4075 7.14334 29.4113 6.88982C29.4153 6.63763 29.2524 6.41145 29.011 6.33406Z" fill="#845EF7"/>
<path d="M39.6115 3.21373C39.2946 2.58325 38.8015 2.06486 38.1863 1.71326L38.0898 1.65856C36.4865 0.742534 34.6667 0.346233 32.8278 0.51436C32.6925 0.525702 32.5714 0.601761 32.4999 0.716514C32.4291 0.831934 32.4162 0.97471 32.466 1.1008L32.4762 1.12616C32.477 1.12816 32.4778 1.13083 32.4788 1.13283L34.0341 4.87966C34.1022 5.04378 34.2614 5.14519 34.4316 5.14519C34.4694 5.14519 34.5074 5.13985 34.545 5.12984L39.3403 3.82218C39.4651 3.78816 39.5675 3.70009 39.6204 3.58201C39.6728 3.46458 39.6694 3.32915 39.6115 3.21373Z" fill="#5A27F2"/>
<path d="M6.41475 19.0685C6.2172 19.0685 6.03946 18.9316 5.99464 18.7307C5.9433 18.4993 6.0895 18.2691 6.32168 18.2178L12.1587 16.9203C12.3909 16.8681 12.6205 17.0149 12.6723 17.247C12.7236 17.4793 12.5775 17.7086 12.3455 17.7602L6.50856 19.0583C6.47727 19.0651 6.44578 19.0685 6.41475 19.0685Z" fill="#5A27F2"/>
<path d="M0.430118 15.3609C0.233095 15.3609 0.0553573 15.2249 0.0105322 15.0239C-0.0415905 14.7917 0.104874 14.5616 0.336561 14.5095L9.64095 12.4292C9.87319 12.3774 10.103 12.5233 10.1549 12.7548C10.207 12.9877 10.0608 13.2179 9.82889 13.27L0.524723 15.3502C0.493186 15.3575 0.461395 15.3609 0.430118 15.3609Z" fill="#5A27F2"/>
<path d="M24.2561 8.71719L6.62843 1.71858C6.35115 1.60783 6.0358 1.72726 5.9021 1.99412C5.76814 2.26032 5.8604 2.58457 6.1145 2.74135L18.3133 10.2323C18.4045 10.2884 18.5087 10.3171 18.6138 10.3171C18.6664 10.3171 18.7193 10.3097 18.7707 10.2957L24.2561 8.71719Z" fill="#5A27F2"/>
</svg>
