<svg width="30" height="39" viewBox="0 0 30 39" fill="none" xmlns="http://www.w3.org/2000/svg">
<path d="M28.5929 4.62324H0.498022C0.223143 4.62324 0 4.84562 0 5.12127V37.9802C0 38.2558 0.223143 38.4782 0.498022 38.4782H28.5929C28.8678 38.4782 29.0909 38.2558 29.0909 37.9802V5.12127C29.0909 4.84562 28.8678 4.62324 28.5929 4.62324Z" fill="#5A27F2"/>
<path d="M25.4681 7.20068H4.00584C3.73096 7.20068 3.50781 7.42382 3.50781 7.69947V33.891C3.50781 34.1659 3.73096 34.389 4.00584 34.389H25.4681C25.7429 34.389 25.9661 34.1659 25.9661 33.891V7.69947C25.9661 7.42382 25.7429 7.20068 25.4681 7.20068Z" fill="white"/>
<path d="M22.9165 3.09455H18.1046C17.8606 1.34798 16.3573 -0.000151634 14.5458 -0.000151634C12.7329 -0.000151634 11.2303 1.34798 10.9863 3.09455H6.1736C5.89795 3.09455 5.6748 3.31771 5.6748 3.59336V8.90872C5.6748 9.1836 5.89795 9.40674 6.1736 9.40674H22.9165C23.1922 9.40674 23.4153 9.1836 23.4153 8.90872V3.59336C23.4153 3.31771 23.1922 3.09455 22.9165 3.09455Z" fill="#845EF7"/>
<path d="M9.00193 12.6057C9.00193 13.3462 8.40121 13.9461 7.66074 13.9461C6.92026 13.9461 6.32031 13.3462 6.32031 12.6057C6.32031 11.8652 6.92026 11.2645 7.66074 11.2645C8.40121 11.2645 9.00193 11.8652 9.00193 12.6057Z" fill="#ADB5BD"/>
<path d="M22.1589 13.1035H11.3166C11.0417 13.1035 10.8186 12.8803 10.8186 12.6054C10.8186 12.3298 11.0417 12.1066 11.3166 12.1066H22.1589C22.4338 12.1066 22.657 12.3298 22.657 12.6054C22.657 12.8803 22.4338 13.1035 22.1589 13.1035Z" fill="#5A27F2"/>
<path d="M9.00193 16.9483C9.00193 17.6888 8.40121 18.2888 7.66074 18.2888C6.92026 18.2888 6.32031 17.6888 6.32031 16.9483C6.32031 16.2079 6.92026 15.6079 7.66074 15.6079C8.40121 15.6079 9.00193 16.2079 9.00193 16.9483Z" fill="#ADB5BD"/>
<path d="M22.1589 17.447H11.3166C11.0417 17.447 10.8186 17.2238 10.8186 16.9482C10.8186 16.6733 11.0417 16.4501 11.3166 16.4501H22.1589C22.4338 16.4501 22.657 16.6733 22.657 16.9482C22.657 17.2238 22.4338 17.447 22.1589 17.447Z" fill="#5A27F2"/>
<path d="M9.00193 21.2914C9.00193 22.0319 8.40121 22.6318 7.66074 22.6318C6.92026 22.6318 6.32031 22.0319 6.32031 21.2914C6.32031 20.5509 6.92026 19.9502 7.66074 19.9502C8.40121 19.9502 9.00193 20.5509 9.00193 21.2914Z" fill="#ADB5BD"/>
<path d="M22.1589 21.7892H11.3166C11.0417 21.7892 10.8186 21.566 10.8186 21.2912C10.8186 21.0155 11.0417 20.7924 11.3166 20.7924H22.1589C22.4338 20.7924 22.657 21.0155 22.657 21.2912C22.657 21.566 22.4338 21.7892 22.1589 21.7892Z" fill="#5A27F2"/>
<path d="M9.00193 25.6339C9.00193 26.3744 8.40121 26.9743 7.66074 26.9743C6.92026 26.9743 6.32031 26.3744 6.32031 25.6339C6.32031 24.8934 6.92026 24.2935 7.66074 24.2935C8.40121 24.2935 9.00193 24.8934 9.00193 25.6339Z" fill="#ADB5BD"/>
<path d="M22.1589 26.1323H11.3166C11.0417 26.1323 10.8186 25.9091 10.8186 25.6335C10.8186 25.3586 11.0417 25.1354 11.3166 25.1354H22.1589C22.4338 25.1354 22.657 25.3586 22.657 25.6335C22.657 25.9091 22.4338 26.1323 22.1589 26.1323Z" fill="#5A27F2"/>
</svg>
