<svg width="40" height="42" viewBox="0 0 40 42" fill="none" xmlns="http://www.w3.org/2000/svg">
<path d="M35.6366 5.41741H9.27193C6.86585 5.41741 4.90918 7.37408 4.90918 9.77986V40.9316C4.90918 41.2987 5.2056 41.5959 5.57224 41.5959H39.3369C39.703 41.5959 40.0001 41.2987 40.0001 40.9316V9.77986C40.0001 7.37408 38.0435 5.41741 35.6366 5.41741Z" fill="#845EF7"/>
<path d="M10.0608 6.73239C9.57246 6.73239 9.17651 6.33686 9.17651 5.84849V0.884366C9.17651 0.395993 9.57246 5.05447e-05 10.0608 5.05447e-05C10.55 5.05447e-05 10.9461 0.395993 10.9461 0.884366V5.84849C10.9461 6.33686 10.55 6.73239 10.0608 6.73239Z" fill="#5A27F2"/>
<path d="M35.0375 6.73239C34.5492 6.73239 34.1533 6.33686 34.1533 5.84849V0.884366C34.1533 0.395993 34.5492 5.05447e-05 35.0375 5.05447e-05C35.5259 5.05447e-05 35.9217 0.395993 35.9217 0.884366V5.84849C35.9217 6.33686 35.5259 6.73239 35.0375 6.73239Z" fill="#5A27F2"/>
<path d="M28.2409 32.7127H16.5066V23.8356H28.2409V32.7127Z" fill="white"/>
<path d="M16.5065 32.7127H4.77344V23.8356H16.5065V32.7127Z" fill="#5A27F2"/>
<path d="M28.3212 23.8358H16.5879V14.9588H28.3212V23.8358Z" fill="#5A27F2"/>
<path d="M28.3212 41.5899H16.5879V32.7129H28.3212V41.5899Z" fill="#5A27F2"/>
<path d="M39.9528 32.7127H28.2195V23.8356H39.9528V32.7127Z" fill="#5A27F2"/>
<path d="M28.7842 20.478L24.8433 16.5368C24.7189 16.4127 24.5493 16.3428 24.3735 16.3428C24.1977 16.3428 24.029 16.4127 23.9046 16.5368L10.6972 29.7446L4.72302 23.77C4.46362 23.511 4.04311 23.511 3.78401 23.77L0.193908 27.3593C0.0695016 27.4846 0 27.6533 0 27.8292C0 28.0052 0.0695016 28.1734 0.193908 28.2991L10.5791 38.6834C10.7084 38.8127 10.8787 38.8778 11.0486 38.8778C11.2183 38.8778 11.3879 38.8127 11.5175 38.6834L28.7842 21.4166C29.0433 21.1575 29.0433 20.7369 28.7842 20.478Z" fill="#D3D7DB"/>
<path d="M10.8699 29.7319C10.8217 29.7424 10.7743 29.7569 10.7285 29.7761L4.72305 23.7698C4.46365 23.5109 4.04313 23.5109 3.78404 23.7698L0.193935 27.3591C-0.0646451 27.6182 -0.0646451 28.0399 0.193935 28.299L10.5273 38.6319C10.6229 38.7263 10.7426 38.7889 10.8699 38.8138V29.7319Z" fill="#ADB5BD"/>
<path d="M35.6366 5.41715H9.27193C6.86585 5.41715 4.90918 7.37382 4.90918 9.77959V14.4649C4.90918 14.8319 5.2056 15.1292 5.57224 15.1292H39.3369C39.703 15.1292 40.0001 14.8319 40.0001 14.4649V9.77959C40.0001 7.37382 38.0435 5.41715 35.6366 5.41715Z" fill="#D3D7DB"/>
</svg>
