<svg width="40" height="40" viewBox="0 0 40 40" fill="none" xmlns="http://www.w3.org/2000/svg">
<path d="M33.4436 23.146C33.4436 23.4032 33.4373 23.6596 33.4259 23.9141C33.2584 27.6536 31.8664 31.1707 29.4417 34.0018C29.1574 34.3341 28.8588 34.6574 28.5455 34.97C28.4743 35.0414 28.4027 35.112 28.3295 35.1807C26.4393 37.008 24.1912 38.337 21.7463 39.1042H21.7456C20.9659 39.348 20.1645 39.5356 19.3495 39.6633H19.3488C18.7369 39.7597 18.1166 39.8223 17.49 39.8499C17.235 39.8616 16.9789 39.8678 16.7218 39.8678C16.4643 39.8678 16.2082 39.8616 15.9533 39.8499C15.416 39.8258 14.8832 39.7767 14.3572 39.7017C13.5541 39.59 12.7646 39.4194 11.9946 39.1926H11.9935C9.41744 38.4388 7.05141 37.0643 5.07682 35.1459C5.01716 35.0878 4.95679 35.0289 4.8982 34.97C4.57855 34.6511 4.27436 34.3207 3.98481 33.9813C1.57099 31.1546 0.185232 27.6446 0.0177734 23.9141C0.00589501 23.6596 0 23.4032 0 23.146C0 22.8879 0.00589501 22.6325 0.0177734 22.377C0.183178 18.6876 1.54027 15.2143 3.90487 12.4036C4.21854 12.0312 4.54961 11.6704 4.8982 11.3212C4.93231 11.2873 4.96688 11.2533 5.00144 11.2194C6.91047 9.34115 9.1931 7.97646 11.6799 7.1932C12.4749 6.94313 13.2889 6.75291 14.1196 6.62519H14.1199C14.7234 6.52963 15.3354 6.46978 15.9533 6.4412C16.2082 6.43049 16.4643 6.42424 16.7218 6.42424C16.9789 6.42424 17.235 6.43049 17.49 6.4412C18.1996 6.47336 18.9012 6.54927 19.5916 6.66806C20.4345 6.81274 21.2613 7.02173 22.0658 7.29324C24.4494 8.09347 26.6357 9.43315 28.4743 11.2515C28.498 11.2756 28.5217 11.298 28.5455 11.3212C28.8992 11.6758 29.2348 12.0419 29.5523 12.4215C31.9089 15.2286 33.2605 18.6947 33.4259 22.377C33.4373 22.6325 33.4436 22.8879 33.4436 23.146Z" fill="#5A27F2"/>
<path d="M28.5464 34.97C31.7048 31.8119 33.4443 27.6125 33.4443 23.146C33.4443 18.6787 31.7048 14.4801 28.5464 11.3212C25.3885 8.16314 21.1887 6.42424 16.7224 6.42424V39.8678C21.1887 39.8678 25.3885 38.128 28.5464 34.97Z" fill="#845EF7"/>
<path d="M17.4899 6.4412V39.8499C17.2348 39.8616 16.9788 39.8678 16.7217 39.8678C16.4642 39.8678 16.2081 39.8616 15.9531 39.8499V6.4412C16.2081 6.43049 16.4642 6.42424 16.7217 6.42424C16.9788 6.42424 17.2348 6.43049 17.4899 6.4412Z" fill="white"/>
<path d="M33.4436 23.146C33.4436 23.4033 33.4373 23.6596 33.4259 23.9141H0.0177734C0.00589501 23.6596 0 23.4033 0 23.146L0.0177734 22.3771H33.4259C33.4373 22.6325 33.4436 22.8879 33.4436 23.146Z" fill="white"/>
<path d="M14.3567 39.7016C13.5536 39.59 12.7641 39.4194 11.9941 39.1925H11.993C10.6369 37.3867 9.51189 35.5468 8.62288 33.6811V33.6802C8.3996 33.2105 8.19035 32.7407 7.9977 32.2673C7.31224 30.5963 6.8154 28.9056 6.50879 27.2016C6.31195 26.1111 6.19441 25.0135 6.15467 23.914C6.13547 23.4023 6.13306 22.8896 6.14869 22.377C6.21219 20.171 6.58899 17.9596 7.27589 15.7635C7.46889 15.1463 7.67922 14.5515 7.90321 13.9808C8.09577 13.4878 8.29815 13.0127 8.50606 12.5563C9.54118 10.2869 10.7297 8.46671 11.6794 7.19313C12.4744 6.94306 13.2884 6.75284 14.1191 6.62512C13.7217 7.07704 13.0578 7.87993 12.3029 8.97757C11.5685 10.0484 10.7479 11.3997 10.0069 12.9841C9.79197 13.4414 9.58441 13.9183 9.38801 14.4122C9.14902 15.0088 8.92609 15.6313 8.7255 16.2797C8.09684 18.3062 7.74933 20.3451 7.68618 22.377C7.6702 22.8905 7.67225 23.4023 7.69253 23.914C7.73263 24.9358 7.84462 25.9548 8.02807 26.9676C8.32431 28.6002 8.80919 30.2221 9.47974 31.8297C9.67756 32.3048 9.89209 32.78 10.1227 33.2515C11.1903 35.4388 12.6043 37.5947 14.3567 39.7016Z" fill="white"/>
<path d="M27.5179 23.9142C27.4781 25.0136 27.3605 26.1113 27.1638 27.2018C26.8446 28.98 26.3171 30.7439 25.5845 32.4854C25.3863 32.9588 25.1731 33.4294 24.9443 33.8983C24.0871 35.6587 23.0206 37.3967 21.7461 39.1043H21.7454C20.9657 39.3481 20.1643 39.5357 19.3494 39.6634C21.0285 37.6387 22.3958 35.5685 23.443 33.4688C23.6786 32.9981 23.8976 32.5256 24.0993 32.0514C24.818 30.3714 25.3339 28.6745 25.6445 26.9678C25.8279 25.955 25.9399 24.9359 25.98 23.9142C26.0003 23.4025 26.0024 22.8907 25.9864 22.3772C25.9232 20.3453 25.5761 18.3063 24.947 16.2799C24.7587 15.6725 24.5507 15.0858 24.3292 14.524C24.1352 14.0301 23.9304 13.5541 23.719 13.0968C22.2297 9.87892 20.4065 7.60238 19.5915 6.66818C20.4344 6.81286 21.2612 7.02185 22.0657 7.29336C23.016 8.57766 24.189 10.3934 25.2062 12.6449C25.4121 13.1004 25.612 13.5737 25.8018 14.065C26.0132 14.6107 26.2131 15.1769 26.3966 15.7637C27.0839 17.9598 27.4604 20.1712 27.5238 22.3772C27.5391 22.8898 27.5371 23.4025 27.5179 23.9142Z" fill="white"/>
<path d="M29.5529 12.4213C28.342 13.0715 27.0899 13.6199 25.8025 14.0647C25.317 14.2326 24.8257 14.3862 24.33 14.5237C23.0291 14.8863 21.6946 15.1453 20.3347 15.2998C19.399 15.4061 18.4501 15.4624 17.4907 15.4695C17.4171 15.4713 17.3424 15.4713 17.2681 15.4713C17.0863 15.4713 16.9045 15.4695 16.7224 15.4651C16.4674 15.4606 16.2103 15.4526 15.9539 15.4409C14.5636 15.3766 13.1556 15.2114 11.7391 14.9453C10.9074 14.789 10.1211 14.6068 9.38915 14.4121C8.86588 14.2736 8.37011 14.1281 7.90435 13.9807C6.03756 13.3903 4.64868 12.767 3.90552 12.4035C4.21918 12.031 4.55026 11.6702 4.89884 11.321C4.93296 11.2871 4.96752 11.2531 5.00208 11.2192C5.35165 11.3808 5.79124 11.5738 6.31032 11.7792C6.93452 12.0266 7.67303 12.2954 8.5072 12.5562C8.97778 12.7026 9.47882 12.8473 10.0081 12.984C10.658 13.1519 11.3487 13.3082 12.0747 13.4439C13.3785 13.6877 14.6746 13.8396 15.9539 13.9021C16.2103 13.9146 16.4674 13.9235 16.7224 13.928C16.9792 13.9334 17.2356 13.9352 17.4907 13.9325C18.403 13.9253 19.3048 13.8708 20.1937 13.7681C21.3928 13.6306 22.5703 13.4064 23.7198 13.0965C24.2207 12.9625 24.7169 12.8107 25.207 12.6446C26.3259 12.2632 27.4165 11.7979 28.4749 11.2513C28.4987 11.2755 28.5223 11.2978 28.5461 11.321C28.8999 11.6756 29.2355 12.0417 29.5529 12.4213Z" fill="white"/>
<path d="M5.07639 35.1456C6.22306 34.5598 7.40715 34.0712 8.62294 33.6809V33.68C9.11773 33.5211 9.6176 33.3773 10.1227 33.2522C11.1454 32.9941 12.1895 32.8057 13.2501 32.6833C14.139 32.5806 15.0405 32.5261 15.9528 32.5199C16.4622 32.5136 16.975 32.5253 17.4896 32.5503C18.7696 32.611 20.0653 32.7646 21.3687 33.0075C22.0975 33.1424 22.791 33.2996 23.4427 33.4684C23.9716 33.6059 24.4726 33.7506 24.944 33.898C26.3963 34.3526 27.5577 34.8304 28.3291 35.1805C28.4023 35.1117 28.4738 35.0411 28.545 34.9697C28.8583 34.6571 29.157 34.3338 29.4413 34.0016C28.6843 33.6345 27.3512 33.0468 25.5842 32.4851C25.1184 32.3368 24.623 32.1903 24.099 32.051C23.3538 31.8518 22.5531 31.667 21.7043 31.5062C20.2883 31.24 18.8798 31.0748 17.4896 31.0114C16.975 30.9882 16.4622 30.9775 15.9528 30.9819C14.9934 30.9891 14.0445 31.0462 13.1081 31.1516C11.8755 31.2919 10.6653 31.5187 9.4798 31.8295C8.98162 31.9599 8.48656 32.1064 7.99776 32.2671C6.61835 32.7208 5.2776 33.2924 3.98438 33.981L5.07639 35.1456Z" fill="white"/>
<path d="M39.9293 11.634C39.804 11.3616 39.5312 11.1865 39.2311 11.1865H34.9187V0.801371C34.9187 0.37714 34.5748 0.0332832 34.1498 0.0332832H27.6374C27.2128 0.0332832 26.8685 0.37714 26.8685 0.801371V11.1865H22.5557C22.2599 11.1865 21.9902 11.3571 21.8625 11.6241C21.7352 11.8912 21.7722 12.2082 21.9581 12.4378L30.0432 22.4496C30.1866 22.6273 30.4012 22.7318 30.6297 22.7354C30.6336 22.7354 30.637 22.7354 30.6412 22.7354C30.8649 22.7354 31.078 22.6371 31.2242 22.4665L39.8141 12.4556C40.0098 12.2279 40.0548 11.9073 39.9293 11.634Z" fill="#D3D7DB"/>
<path d="M30.5234 -4.19617e-05H27.6375C27.1944 -4.19617e-05 26.8354 0.358988 26.8354 0.801079V11.1532H22.5558C22.247 11.1532 21.9655 11.3309 21.8326 11.6096C21.699 11.8882 21.7384 12.2187 21.9324 12.4589L30.005 22.4555C30.1368 22.619 30.3242 22.719 30.5234 22.7458V-4.19617e-05Z" fill="#ADB5BD"/>
</svg>
