<svg width="40" height="40" viewBox="0 0 40 40" fill="none" xmlns="http://www.w3.org/2000/svg">
<path d="M31.9102 7.35426C28.3788 3.8237 23.685 1.87942 18.693 1.87942C13.7001 1.87942 9.00625 3.8237 5.4757 7.35426C1.94427 10.8848 0 15.5786 0 20.5715C0 25.5635 1.94427 30.2582 5.4757 33.7888C9.00625 37.3194 13.7001 39.2636 18.693 39.2636C23.685 39.2636 28.3788 37.3194 31.9102 33.7888C35.4408 30.2582 37.3851 25.5635 37.3851 20.5715C37.3851 15.5786 35.4408 10.8848 31.9102 7.35426Z" fill="#845EF7"/>
<path d="M37.5317 18.8795C37.035 15.8205 36.4377 13.676 34.5559 10.4454C33.8589 9.24918 32.9947 8.12751 31.3998 8.02262L27.7054 7.77905C26.6262 7.70798 25.586 8.06337 24.7738 8.7785C23.9633 9.49276 23.4796 10.4818 23.4146 11.561L23.1979 15.16C23.1364 16.1716 23.4562 17.1624 24.0959 17.9486C24.7357 18.7357 25.6415 19.2488 26.6444 19.3944L27.6863 19.5453C28.6701 19.6883 29.5023 20.3107 29.9166 21.2148L31.7647 26.9471C31.7699 26.967 31.7777 26.9861 31.7864 27.0043C32.0109 27.5062 32.4902 27.8251 33.0398 27.8355C33.0502 27.8355 33.0606 27.8355 33.0701 27.8355C33.6076 27.8355 34.0869 27.54 34.327 27.0563C34.5923 26.5214 35.0032 25.9944 35.4383 25.437C36.6024 23.9435 38.0526 22.0842 37.5317 18.8795Z" fill="#D3D7DB"/>
<path d="M21.1938 2.15675C21.1279 1.94005 20.9372 1.78402 20.7127 1.76235C20.6113 1.75281 18.2336 1.52831 16.6438 1.76582C16.4549 1.79442 16.2936 1.91664 16.2156 2.09088C15.9599 2.66124 15.4164 4.06722 15.8871 4.79361C16.0691 5.07446 16.3673 5.22876 16.7262 5.22876C17.8886 5.22876 20.3001 3.3339 21.0117 2.75226C21.1877 2.60923 21.2588 2.37433 21.1938 2.15675Z" fill="#D3D7DB"/>
<path d="M16.8214 25.6096C17.201 24.8511 17.1612 23.9678 16.7156 23.2457C16.2701 22.5245 15.4969 22.0929 14.6491 22.0929H12.6996C12.5635 22.0929 12.4283 22.0721 12.2992 22.0296L7.72581 20.5586C7.01589 20.3298 6.2531 20.4364 5.63245 20.8516C5.01181 21.2651 4.62175 21.9299 4.56107 22.6728L4.29062 25.9788C4.22127 26.8309 4.61221 27.6674 5.31173 28.1606L7.4285 29.655C7.66514 29.8214 7.84197 30.0667 7.92692 30.3433L8.66285 32.7539C8.84055 33.3373 9.22889 33.8287 9.75419 34.1373L13.5829 36.3911C13.8152 36.5272 14.0675 36.5939 14.3171 36.5939C14.6595 36.5939 14.9976 36.4674 15.2724 36.2194C15.7474 35.7921 15.8835 35.1394 15.6191 34.5577L14.3189 31.6981C14.1542 31.3366 14.162 30.9249 14.3397 30.5695L16.8214 25.6096Z" fill="#ADB5BD"/>
<path d="M13.8147 7.14616C12.921 6.34262 11.958 6.93119 11.1839 7.4036C10.6673 7.71913 10.1333 8.04593 9.61232 8.05113C9.57332 8.05113 9.53865 8.05026 9.50831 8.04939C9.66 7.78068 9.9998 7.36373 10.2035 7.11496C10.2989 6.99707 10.3925 6.88265 10.48 6.7717C11.0469 6.05311 11.5453 4.70347 11.0062 4.04122C10.9022 3.91206 10.506 3.52112 9.79089 3.87739C8.8738 4.3342 3.75002 7.68966 1.5327 12.6037C0.580061 14.7118 1.01175 16.9802 2.78006 19.1655C4.06729 20.7544 5.59983 21.7347 5.66484 21.7755C5.75673 21.8344 5.86074 21.863 5.96389 21.863C6.11038 21.863 6.256 21.805 6.36435 21.694C6.54898 21.505 6.57586 21.2121 6.4285 20.9919C5.98728 20.3322 6.09824 20.0297 6.30021 19.4801C6.43803 19.1048 6.6088 18.6385 6.55939 18.0378C6.52471 17.6182 6.40077 17.2845 6.24301 17.0097C6.91132 17.4371 7.49729 17.75 7.98964 17.6026C8.64842 17.4058 8.96742 16.4905 9.4095 15.2223C9.66781 14.4786 9.96166 13.6352 10.2893 13.1446C10.6568 12.595 11.0149 12.5655 11.6658 12.5135C12.101 12.478 12.5933 12.4381 13.1386 12.211C13.8494 11.9145 14.3798 11.111 14.5593 10.0595C14.7604 8.87807 14.4691 7.73473 13.8147 7.14616Z" fill="#ADB5BD"/>
<path d="M32.1729 15.0097C31.8643 15.0097 31.6138 14.7592 31.6138 14.4497V0.558919C31.6138 0.249464 31.8643 -0.000175476 32.1729 -0.000175476C32.4823 -0.000175476 32.7328 0.249464 32.7328 0.558919V14.4497C32.7328 14.7592 32.4823 15.0097 32.1729 15.0097Z" fill="white"/>
<path d="M37.8601 3.09646L39.852 0.93894C40.0029 0.775111 40.0419 0.538471 39.9534 0.334769C39.8633 0.131933 39.6631 0.000177383 39.4403 0.000177383H32.1729C31.8643 0.000177383 31.6138 0.249817 31.6138 0.559272V5.63451C31.6138 5.94396 31.8643 6.1936 32.1729 6.1936H39.4403C39.6631 6.1936 39.8633 6.06185 39.9534 5.85901C40.0419 5.65531 40.0029 5.41867 39.852 5.25484L37.8601 3.09646Z" fill="#5A27F2"/>
<path d="M5.4753 11.1847L14.2926 26.8273L16.2724 25.8859L31.0283 18.2137L29.7081 15.9548L5.94426 10.2485L5.4753 11.1847ZM14.062 28.1171C13.8653 28.1171 13.6763 28.014 13.574 27.8319L4.35537 11.4742C4.26349 11.3121 4.2583 11.1153 4.34238 10.9489L5.14419 9.3496C5.25948 9.11729 5.52126 8.99594 5.77437 9.05662L30.2005 14.9233C30.3487 14.9588 30.4753 15.0524 30.5524 15.1842L32.2913 18.1565C32.3684 18.2891 32.3883 18.4469 32.3467 18.5942C32.3034 18.7416 32.202 18.8647 32.0659 18.9358L16.7795 26.8836C16.7734 26.8862 16.7674 26.8897 16.7613 26.8923L14.3021 28.0616C14.2241 28.0989 14.1435 28.1171 14.062 28.1171Z" fill="white"/>
<path d="M3.64921 6.85992C2.13834 6.85992 0.90918 8.08994 0.90918 9.6008C0.90918 11.1117 2.13834 12.3408 3.64921 12.3408C5.16008 12.3408 6.39008 11.1117 6.39008 9.6008C6.39008 8.08994 5.16008 6.85992 3.64921 6.85992Z" fill="#5A27F2"/>
<path d="M31.8085 13.7037C30.2968 13.7037 29.0676 14.9337 29.0676 16.4446C29.0676 17.9554 30.2968 19.1846 31.8085 19.1846C33.3202 19.1846 34.5494 17.9554 34.5494 16.4446C34.5494 14.9337 33.3202 13.7037 31.8085 13.7037Z" fill="#5A27F2"/>
<path d="M14.9055 24.8163C13.3947 24.8163 12.1655 26.0463 12.1655 27.5572C12.1655 29.068 13.3947 30.2972 14.9055 30.2972C16.4173 30.2972 17.6464 29.068 17.6464 27.5572C17.6464 26.0463 16.4173 24.8163 14.9055 24.8163Z" fill="#5A27F2"/>
</svg>
