<svg width="40" height="43" viewBox="0 0 40 43" fill="none" xmlns="http://www.w3.org/2000/svg">
<path d="M10.801 12.9796C10.5736 12.8378 10.2892 12.8234 10.0482 12.9399L0.436882 17.6285C0.169387 17.7586 0 18.0296 0 18.3269V41.6905C0 41.9588 0.138312 42.2081 0.365968 42.35C0.491269 42.4286 0.634189 42.4683 0.777829 42.4683C0.893915 42.4683 1.01072 42.4421 1.11832 42.3897L10.73 37.7011C10.9971 37.571 11.166 37.3 11.166 37.0028V13.6391C11.166 13.3708 11.0287 13.1215 10.801 12.9796Z" fill="#5A27F2"/>
<path d="M30.0225 12.9796C29.7949 12.8378 29.5103 12.8234 29.27 12.9399L19.6579 17.6285C19.3914 17.7586 19.2224 18.0296 19.2224 18.3269V41.6905C19.2224 41.9588 19.3597 42.2081 19.5874 42.35C19.713 42.4286 19.8557 42.4683 19.9993 42.4683C20.1159 42.4683 20.2324 42.4421 20.3399 42.3897L29.9511 37.7011C30.2186 37.571 30.3875 37.3 30.3875 37.0028V13.6391C30.3875 13.3708 30.2502 13.1215 30.0225 12.9796Z" fill="#5A27F2"/>
<path d="M28.8795 8.8324C28.8795 3.95406 24.9253 -0.000108719 20.0479 -0.000108719C15.1705 -0.000108719 11.2163 3.95406 11.2163 8.8324C11.2163 8.8324 10.9968 17.7155 20.0479 26.7666C29.099 17.7155 28.8795 8.8324 28.8795 8.8324Z" fill="#D3D7DB"/>
<path d="M39.5627 17.6285L29.9514 12.9399C29.8439 12.8875 29.7274 12.8631 29.6108 12.8631V37.8682L38.8815 42.3897C38.989 42.4421 39.1055 42.4683 39.2221 42.4683C39.3657 42.4683 39.5085 42.4286 39.634 42.35C39.8617 42.2081 39.9999 41.9588 39.9999 41.6905V18.3269C39.9999 18.0296 39.8301 17.7586 39.5627 17.6285Z" fill="#845EF7"/>
<path d="M19.9999 17.4623L10.7296 12.9399C10.6851 12.9191 10.6399 12.9029 10.5938 12.8911V37.8122L19.6584 42.3897C19.7668 42.4421 19.8834 42.4683 19.9999 42.4683V17.4623Z" fill="#845EF7"/>
<path d="M20.1762 0.00169945C20.1337 0.000795364 20.0904 -0.000108719 20.0479 -0.000108719C15.1705 -0.000108719 11.2163 3.95406 11.2163 8.8324C11.2163 8.8324 10.9968 17.7155 20.0479 26.7666C20.0913 26.7233 20.1337 26.6799 20.1762 26.6356V0.00169945Z" fill="#ADB5BD"/>
<path d="M23.6555 8.81238C23.6555 10.8053 22.0402 12.4214 20.0473 12.4214C18.0544 12.4214 16.4382 10.8053 16.4382 8.81238C16.4382 6.81949 18.0544 5.20422 20.0473 5.20422C22.0402 5.20422 23.6555 6.81949 23.6555 8.81238Z" fill="white"/>
</svg>
